<svg width="58" height="49" viewBox="0 0 58 49" fill="none" xmlns="http://www.w3.org/2000/svg">
<g clip-path="url(#clip0_123_73)" filter="url(#filter0_d_123_73)">
<path d="M46.7273 0H11.2727C7.25611 0 4 3.25611 4 7.27273V33.6364C4 37.653 7.25611 40.9091 11.2727 40.9091H46.7273C50.7439 40.9091 54 37.653 54 33.6364V7.27273C54 3.25611 50.7439 0 46.7273 0Z" fill="#0077FF"/>
<g clip-path="url(#clip1_123_73)">
<path d="M29.8526 26.529C23.3299 26.529 19.6096 21.9686 19.4546 14.3802H22.7219C22.8292 19.9499 25.2378 22.3092 27.1458 22.7956V14.3802H30.2223V19.1837C32.1064 18.977 34.0856 16.7881 34.7534 14.3802H37.83C37.3172 17.3475 35.1708 19.5364 33.6445 20.4363C35.1708 21.166 37.6154 23.0753 38.5455 26.529H35.1589C34.4315 24.2184 32.6192 22.4307 30.2223 22.1875V26.529H29.8526Z" fill="white"/>
</g>
</g>
<defs>
<filter id="filter0_d_123_73" x="0" y="0" width="58" height="48.9091" filterUnits="userSpaceOnUse" color-interpolation-filters="sRGB">
<feFlood flood-opacity="0" result="BackgroundImageFix"/>
<feColorMatrix in="SourceAlpha" type="matrix" values="0 0 0 0 0 0 0 0 0 0 0 0 0 0 0 0 0 0 127 0" result="hardAlpha"/>
<feOffset dy="4"/>
<feGaussianBlur stdDeviation="2"/>
<feComposite in2="hardAlpha" operator="out"/>
<feColorMatrix type="matrix" values="0 0 0 0 0 0 0 0 0 0 0 0 0 0 0 0 0 0 0.25 0"/>
<feBlend mode="normal" in2="BackgroundImageFix" result="effect1_dropShadow_123_73"/>
<feBlend mode="normal" in="SourceGraphic" in2="effect1_dropShadow_123_73" result="shape"/>
</filter>
<clipPath id="clip0_123_73">
<rect width="50" height="40.9091" fill="white" transform="translate(4)"/>
</clipPath>
<clipPath id="clip1_123_73">
<rect width="19.0909" height="19.0909" fill="white" transform="translate(19.4546 10.9091)"/>
</clipPath>
</defs>
</svg>
